<?xml version="1.0" encoding="utf-8"?>
<!-- Generator: Adobe Illustrator 23.0.3, SVG Export Plug-In . SVG Version: 6.00 Build 0)  -->
<svg version="1.1" id="Layer_1" xmlns="http://www.w3.org/2000/svg" xmlns:xlink="http://www.w3.org/1999/xlink" x="0px" y="0px"
	 viewBox="0 0 1124.3 1000" style="enable-background:new 0 0 1124.3 1000;" xml:space="preserve">
<style type="text/css">
	.st0{fill:#F24D21;}
	.st1{fill:#F24D21;stroke:#F24D21;stroke-miterlimit:10;}
	.st2{fill:url(#SVGID_1_);}
	.st3{fill:url(#SVGID_2_);}
	.st4{fill:url(#SVGID_3_);}
	.st5{fill:url(#SVGID_4_);}
	.st6{fill:url(#SVGID_5_);}
	.st7{fill:url(#SVGID_6_);}
	.st8{fill:url(#SVGID_7_);}
	.st9{fill:url(#SVGID_8_);}
	.st10{fill:url(#SVGID_9_);}
	.st11{fill:url(#SVGID_10_);}
	.st12{fill:url(#SVGID_11_);}
	.st13{fill:url(#SVGID_12_);}
	.st14{fill:url(#SVGID_13_);}
	.st15{fill:url(#SVGID_14_);}
</style>
<g>
	<path class="st0" d="M813.4,373.4c-0.3-0.6-0.3-1,0-1.2c0.9-0.7,3.9-1.4,8.9-2.1l23.4-4c0,0,0.1-0.1,0.3-0.1c0.3,0,1,0.2,2.1,0.6
		c1.9,0.8,3.1,2,3.7,3.7c0.2,0.5,0.2,1.1,0,1.8l-12.4,21.7l0.3,0.2c0.2,0.1,0.4,0.2,0.8,0.4c0.3,0.2,0.7,0.4,1.1,0.6
		c1.6,0.8,4.6,3.4,9,8c4.4,4.5,6.8,7.3,7,8.3c0.1,0.3,0.1,0.8,0.1,1.5c0,2-0.8,3-2.5,3c-1.4,0-3-0.6-4.7-1.7
		c-3.7-2.4-7.7-5.7-11.9-9.8c-2.3-2.3-3.7-3.4-4.2-3.4c-0.4,0-1,0.3-1.6,0.9c-0.7,0.6-1.4,1.4-2.2,2.4c-0.8,1-1.5,1.9-2.2,2.8
		c-0.7,0.9-1.4,1.9-2.1,2.9c-0.7,1.1-1.2,1.7-1.3,1.9c-1.9,2.6-3.3,4.1-4.1,4.5c-0.8,0.4-1.3,0.6-1.5,0.6s-0.6-0.2-0.9-0.4
		c-0.9-0.8-1.3-1.9-1.3-3.3c0-1.2,0.4-3,1.3-5.3c1.4-3.6,4.6-9.4,9.5-17.3c4.9-7.9,7.6-12.4,8.2-13.5c0.3-0.5,0.4-0.8,0.4-1
		c0,0,0-0.1-0.1-0.1c0,0-0.1,0-0.3,0c-0.1,0-0.3,0.1-0.4,0.1c-5.3,1.5-10.2,2.2-14.9,2.2c-0.2,0-0.5,0-0.9,0c-0.4,0-0.7,0-0.9,0
		c-3.4-0.2-5.1-1.3-5.1-3.4C813.9,374.4,813.7,373.8,813.4,373.4z"/>
	<path class="st0" d="M811.8,490.8c0-0.9,0.4-2.7,1.3-5.4c1.3-3.8,3-7.9,5.1-12.2c0.9-1.8,1.7-3.2,2.3-4.3c1.2-2.1,2.4-3.2,3.7-3.3
		c0.6,0,1.5-0.1,3-0.2c1.6,0,2.7-0.1,3.5-0.2c0.7-0.1,1.7-0.2,2.8-0.2h2.6c6.6,0.2,11.4,0.7,14.6,1.6c3.2,0.9,5.3,2.2,6.2,4
		c0.3,0.7,0.5,1.6,0.5,2.9c0,1.3-0.2,2.8-0.6,4.4c-0.8,3.1-2.1,6.4-4,9.8c-2.1,3.8-4.1,7.3-6,10.5c-1.8,2.9-3.9,5.9-6.2,9.1
		c-1.9,2.6-3.4,4.6-4.5,5.8c-0.9,1.1-1.4,1.8-1.4,2.1c0,0.6-0.5,1-1.5,1.2c-0.1,0-0.2,0-0.3,0c-0.1,0-0.2,0-0.3,0
		c-1,0-1.8-0.3-2.3-1c-0.6-0.7-0.9-1.6-0.9-2.7v-0.4c0-1.8,0.2-3.2,0.6-4.4c0.3-1.4,1.1-3.5,2.4-6.5c1.4-3.4,2-5.2,1.9-5.2
		l-13.5-7.6l-0.6,1.2c-0.4,0.8-1.1,1.5-2.1,2.2c-1,0.7-2,1.1-3,1.3c-0.1,0-0.2,0-0.3,0c-0.1,0-0.2,0-0.2,0c-0.6,0-1.2-0.2-1.7-0.6
		C812.1,492,811.8,491.4,811.8,490.8z M825.7,481.8c0,0.9,0.8,1.8,2.4,2.7s3.4,1.6,5.5,2.3c2,0.7,3.3,1.2,3.8,1.6l4.9-10.6l1.5-4
		l-1.1-0.3c-0.7-0.2-2.8-0.3-6.4-0.4h-1c-0.6-0.2-1.2-0.3-1.8-0.3c-1.4,0-2.5,0.5-3.4,1.4c-0.9,1-1.7,2.2-2.4,3.7
		c-0.7,1.5-1.2,2.5-1.7,3C825.8,481.2,825.7,481.5,825.7,481.8z"/>
	<path class="st0" d="M810.2,579c0-0.2,0-0.3,0.1-0.4c0-0.1,0.1-0.2,0.2-0.3c0.1-0.1,0.2-0.1,0.3-0.2c0.1,0,0.3-0.1,0.5-0.2
		c0.3-0.1,0.5-0.1,0.6-0.2c0.8-0.3,1.6-0.4,2.4-0.4c0.5,0,0.9,0,1.2,0.1c1.5,0.2,3.4,0.7,5.6,1.5c3.8,1.3,6.3,2.3,7.2,3
		c1.1,0.7,1.8,1.8,2,3.2v0.6c0,1.4-0.8,2.1-2.4,2.1c-1.2,0-2.9-0.3-4.9-0.9c-4.4-1.3-7.5-2.4-9.6-3.4c-2.1-1-3.1-1.7-3.1-2.1
		c0-0.1-0.1-0.4-0.2-1C810.3,579.7,810.2,579.3,810.2,579z M811.1,564.4c0-0.9,0.9-1.3,2.8-1.3c1.7,0,3.8,0.4,6.2,1.2
		c3.2,1,6.1,2.3,8.7,4c2.7,1.8,4,3.6,4,5.5c0,1.5-0.8,2.2-2.4,2.2c-1.8,0-4.2-0.7-7.2-2.1c-3.1-1.4-5.8-2.9-8.1-4.3
		c-2.1-1.2-3.1-2.1-3.1-2.6c0-0.7-0.1-1.2-0.4-1.6C811.2,565,811.1,564.7,811.1,564.4z M821.5,615.5c0-1.5,1.2-4.6,3.7-9.3
		l19.1-26.8c0.8-0.4,1.7-0.6,2.8-0.6c0.9,0,2,0.1,3.3,0.4c1.1,0.3,1.8,0.6,2.1,0.9c0.4,0.4,0.7,1,1.1,2c0.1,0.2,0.1,0.4,0.1,0.8
		c0,1.2-0.7,2.4-2,3.7c-2.4,2.4-5.8,6.9-10.2,13.5c-4.5,6.7-8.3,10.8-11.5,12.4c-0.3,0.1-0.9,0.6-1.8,1.5c-2.6,2-4.4,3-5.5,3
		C821.9,617,821.5,616.5,821.5,615.5z M847.1,565.4V565c0.5-0.6,1.3-1,2.3-1c1.5,0,2.9,0.5,4.4,1.5c0.6,0.4,1.1,1.2,1.5,2.4
		c0.4,1.2,0.6,2.3,0.6,3.5c0,2.1-0.6,3.5-1.7,4.2c-0.2,0.1-0.3,0.1-0.4,0.1c-1,0-2.4-1.4-4.1-4.2
		C847.9,568.8,847.1,566.7,847.1,565.4z M857.4,562.7c0-0.6,0.5-0.9,1.5-1h0.3c1.1,0,2.3,0.4,3.6,1.2c1.3,0.8,2.1,1.6,2.5,2.6
		c0.4,0.8,0.6,1.6,0.6,2.4c0,1.2-0.4,2.2-1.1,3c-0.7,0.9-1.6,1.3-2.6,1.3c-0.5,0-0.9,0-1.2-0.1l-3.2-7.2l-0.4-1.7c0,0,0-0.1,0-0.2
		C857.4,562.8,857.4,562.7,857.4,562.7z"/>
	<path class="st0" d="M812.5,715.5c0-1.5,0.5-3.4,1.6-5.8c1.4-3.2,3.2-6.5,5.6-10.1c3-4.4,5.1-7.3,6.4-8.6c0.2-0.2,1-1.2,2.5-3
		c1.4-1.8,2.1-2.8,2.1-3c0-0.1-0.2-0.1-0.4-0.1c-0.3,0-0.6,0.1-1,0.3c-0.9,0.3-2.5,0.4-5,0.4c-1.6,0-2.7-0.1-3.3-0.2
		c-0.8-0.2-1.5-0.4-2.1-0.8c-1.2-0.6-1.9-0.9-2.2-0.9c-0.3,0-0.5-0.4-0.7-1.3c-0.2-0.9-0.4-1.5-0.4-1.9c0-0.4,0.1-0.6,0.4-0.6
		c0.3,0,0.7-0.2,1.3-0.5c1.2-0.6,3.7-1.2,7.4-1.7c3.7-0.6,6.9-0.9,9.5-1.1V670c0-3.2,0-4.9,0.1-5.3c0.1-0.6,0.3-0.9,0.7-1.1
		c0,0,0.1,0,0.1-0.1c1-0.5,1.9-0.7,2.8-0.7c1.7,0,3.2,0.7,4.5,2c1.3,1.3,2.2,2.7,2.5,4.2c0.1,0.5,0.2,1.5,0.2,3v3.2l1-0.3
		c1.3-0.2,3-0.3,5-0.3c0.9,0,1.5,0,1.9,0.1c0.3,0.1,0.8,0.3,1.3,0.8c1.7,1.3,2.5,2.4,2.5,3.3c0,1.9-2.8,3.1-8.5,3.5l-2.9,0.3
		c-0.1,1.2-0.1,3.1-0.1,5.9c0,2,0,5.2,0.1,9.5c0.1,4.3,0.1,7.5,0.1,9.5c0,0.3,0,0.7,0,1.2c0,0.5,0,1,0,1.3c0,0.3,0,0.8,0,1.3
		s0,1-0.1,1.4c0,0.4-0.1,0.8-0.2,1.2s-0.2,0.8-0.3,1.1c-0.1,0.3-0.2,0.6-0.4,0.8s-0.4,0.5-0.6,0.6c-0.2,0.1-0.5,0.2-0.8,0.2H843
		c-0.7,0-1.5-0.5-2.3-1.3c-0.9-0.9-1.5-1.8-2-2.9c-2.4-5-3.5-9.4-3.5-13.3c0-0.3,0.1-2.1,0.2-5.1c0.1-1.7,0.1-2.6,0.1-2.6
		c0-0.3,0-0.5,0-0.8c-0.1,0-0.3,0.4-0.6,1.3c-0.3,0.8-0.9,2.2-2.1,4.2c-1.1,2.1-2.4,4-3.9,5.9c-2,2.5-3.3,4-3.8,4.7
		c-0.8,0.7-1.4,1.7-2,3c-0.9,1.7-2.7,3.7-5.5,6.2c-1.5,1.4-2.7,2.1-3.5,2.1c-0.5,0-0.9-0.3-1.2-0.8
		C812.6,716.8,812.5,716.2,812.5,715.5z"/>
</g>
<g>
	<g>
		<g>
			<path class="st0" d="M899.1,229.2c-10.8-6.9-36.3,0.9-45.8,3.5c-71.4,19.7-197.9,119.4-352.9,112.6
				c-25.9-1.1-49.4,15.7-74.1,23.5c-18.8,5.1-31,7.5-36.5,7.1h-3.5l-0.6,6.5c13.7,14.1,26.3,24.7,37.6,31.8l35.3-10l15.9,10.6
				l-0.6,21.2c-34.1,10.6-56.1,15.9-65.9,15.9l-22.4-2.4l-3.5,5.3c5.9,6.3,9,18.8,9.4,37.6c0.8,25.1,2,41.2,3.5,48.2
				c4.3,18.4,13.9,31.6,28.8,39.4c11.8-4.3,17.8-11,18.2-20l29.4-6.5l-1.8,62.9c-38,15.7-61.2,23.5-69.4,23.5
				c-10.2,0-18.8-3.3-25.9-10l-5.3,2.9c-1.2,4.3-4.5,11.3-10,20.9c-5.5,9.6-8.2,15.8-8.2,18.5c0,6.7,4,16.2,12.1,28.5
				c8,12.4,15.2,19.1,21.5,20.3c21.6-14.5,37.6-25.7,48.2-33.5c27.4-12.5,48.4-21.6,62.9-27.1c12.5-5.5,25.2-11,37.9-16.5
				c12.7-5.5,25.8-8.6,39.1-9.4c5.9,16.1,11.6,32.2,17.1,48.2c9,17.6,22.2,27.6,39.4,30h1.8c8.2,0.4,14.9-4.7,20-15.3
				c3.9-8.6,5.9-17.6,5.9-27.1c0-26.7-10.8-52-32.3-75.9c-20.4-22.7-43.9-37.3-70.6-43.5l-4.7,1.2c5.5,11.8,9.4,23.9,11.8,36.5
				c-15.3,5.1-30,10.4-44.1,15.9l0.6-55.3c35.3-6.7,57.4-12.9,66.5-18.8c2.4-3.9,7.1-13.1,14.1-27.6c5.5-11.8,10.8-20.2,15.9-25.3
				c10.2-10.6,15.3-18.6,15.3-24.1c0-5.9-6.3-13.7-18.8-23.5c-12.6-9.8-21.8-14.7-27.6-14.7c-8.2,0-28.4,3.9-60.6,11.8l8.2-20
				c0-6.3-4.1-11.2-12.4-14.7c3.9-1.2,235.1-29.6,267.3-39.3c73.6-22.2,94.2-37.3,107.8-47.9c20.3-15.8,26.5-43.4,26.5-46.2
				C919.6,249.2,909.9,236,899.1,229.2z M461.4,503.8l-32.4,8.2c0.4-7.8-1-19.8-4.1-35.9c10.2-2.4,22.7-5.5,37.6-9.4L461.4,503.8z
				 M549.7,453.2L537.9,485c-8.6,5.5-17.8,8.4-27.6,8.8l1.2-33.5C522.8,457.1,535.5,454.8,549.7,453.2z"/>
			<path class="st0" d="M899.1,229.2c-10.8-6.9-36.3,0.9-45.8,3.5c-71.4,19.7-197.9,119.4-352.9,112.6
				c-25.9-1.1-49.4,15.7-74.1,23.5c-18.8,5.1-31,7.5-36.5,7.1h-3.5l-0.6,6.5c13.7,14.1,26.3,24.7,37.6,31.8l35.3-10l15.9,10.6
				l-0.6,21.2c-34.1,10.6-56.1,15.9-65.9,15.9l-22.4-2.4l-3.5,5.3c5.9,6.3,9,18.8,9.4,37.6c0.8,25.1,2,41.2,3.5,48.2
				c4.3,18.4,13.9,31.6,28.8,39.4c11.8-4.3,17.8-11,18.2-20l29.4-6.5l-1.8,62.9c-38,15.7-61.2,23.5-69.4,23.5
				c-10.2,0-18.8-3.3-25.9-10l-5.3,2.9c-1.2,4.3-4.5,11.3-10,20.9c-5.5,9.6-8.2,15.8-8.2,18.5c0,6.7,4,16.2,12.1,28.5
				c8,12.4,15.2,19.1,21.5,20.3c21.6-14.5,37.6-25.7,48.2-33.5c27.4-12.5,48.4-21.6,62.9-27.1c12.5-5.5,25.2-11,37.9-16.5
				c12.7-5.5,25.8-8.6,39.1-9.4c5.9,16.1,11.6,32.2,17.1,48.2c9,17.6,22.2,27.6,39.4,30h1.8c8.2,0.4,14.9-4.7,20-15.3
				c3.9-8.6,5.9-17.6,5.9-27.1c0-26.7-10.8-52-32.3-75.9c-20.4-22.7-43.9-37.3-70.6-43.5l-4.7,1.2c5.5,11.8,9.4,23.9,11.8,36.5
				c-15.3,5.1-30,10.4-44.1,15.9l0.6-55.3c35.3-6.7,57.4-12.9,66.5-18.8c2.4-3.9,7.1-13.1,14.1-27.6c5.5-11.8,10.8-20.2,15.9-25.3
				c10.2-10.6,15.3-18.6,15.3-24.1c0-5.9-6.3-13.7-18.8-23.5c-12.6-9.8-21.8-14.7-27.6-14.7c-8.2,0-28.4,3.9-60.6,11.8l8.2-20
				c0-6.3-4.1-11.2-12.4-14.7c3.9-1.2,235.1-29.6,267.3-39.3c73.6-22.2,94.2-37.3,107.8-47.9c20.3-15.8,26.5-43.4,26.5-46.2
				C919.6,249.2,909.9,236,899.1,229.2z M461.4,503.8l-32.4,8.2c0.4-7.8-1-19.8-4.1-35.9c10.2-2.4,22.7-5.5,37.6-9.4L461.4,503.8z
				 M549.7,453.2L537.9,485c-8.6,5.5-17.8,8.4-27.6,8.8l1.2-33.5C522.8,457.1,535.5,454.8,549.7,453.2z"/>
			<path class="st0" d="M899.1,229.2c-10.8-6.9-36.3,0.9-45.8,3.5c-71.4,19.7-197.9,119.4-352.9,112.6
				c-25.9-1.1-49.4,15.7-74.1,23.5c-18.8,5.1-31,7.5-36.5,7.1h-3.5l-0.6,6.5c13.7,14.1,26.3,24.7,37.6,31.8l35.3-10l15.9,10.6
				l-0.6,21.2c-34.1,10.6-56.1,15.9-65.9,15.9l-22.4-2.4l-3.5,5.3c5.9,6.3,9,18.8,9.4,37.6c0.8,25.1,2,41.2,3.5,48.2
				c4.3,18.4,13.9,31.6,28.8,39.4c11.8-4.3,17.8-11,18.2-20l29.4-6.5l-1.8,62.9c-38,15.7-61.2,23.5-69.4,23.5
				c-10.2,0-18.8-3.3-25.9-10l-5.3,2.9c-1.2,4.3-4.5,11.3-10,20.9c-5.5,9.6-8.2,15.8-8.2,18.5c0,6.7,4,16.2,12.1,28.5
				c8,12.4,15.2,19.1,21.5,20.3c21.6-14.5,37.6-25.7,48.2-33.5c27.4-12.5,48.4-21.6,62.9-27.1c12.5-5.5,25.2-11,37.9-16.5
				c12.7-5.5,25.8-8.6,39.1-9.4c5.9,16.1,11.6,32.2,17.1,48.2c9,17.6,22.2,27.6,39.4,30h1.8c8.2,0.4,14.9-4.7,20-15.3
				c3.9-8.6,5.9-17.6,5.9-27.1c0-26.7-10.8-52-32.3-75.9c-20.4-22.7-43.9-37.3-70.6-43.5l-4.7,1.2c5.5,11.8,9.4,23.9,11.8,36.5
				c-15.3,5.1-30,10.4-44.1,15.9l0.6-55.3c35.3-6.7,57.4-12.9,66.5-18.8c2.4-3.9,7.1-13.1,14.1-27.6c5.5-11.8,10.8-20.2,15.9-25.3
				c10.2-10.6,15.3-18.6,15.3-24.1c0-5.9-6.3-13.7-18.8-23.5c-12.6-9.8-21.8-14.7-27.6-14.7c-8.2,0-28.4,3.9-60.6,11.8l8.2-20
				c0-6.3-4.1-11.2-12.4-14.7c3.9-1.2,235.1-29.6,267.3-39.3c73.6-22.2,94.2-37.3,107.8-47.9c20.3-15.8,26.5-43.4,26.5-46.2
				C919.6,249.2,909.9,236,899.1,229.2z M461.4,503.8l-32.4,8.2c0.4-7.8-1-19.8-4.1-35.9c10.2-2.4,22.7-5.5,37.6-9.4L461.4,503.8z
				 M549.7,453.2L537.9,485c-8.6,5.5-17.8,8.4-27.6,8.8l1.2-33.5C522.8,457.1,535.5,454.8,549.7,453.2z"/>
		</g>
		<g>
			<path class="st0" d="M698.8,240.8c-18.2-10.3-36.5-15.5-54.7-15.5c-6.4,0-14.9,1.4-25.6,4.2c-27.4,8.3-47.8,14.7-61.3,19
				c-81.3,21.4-142.4,37.1-183.3,47c-10.3-4.4-23.4-7.5-39.3-9.5c-4-0.4-17.5-1.4-40.5-3l-0.6,6c7.1,7.9,14.3,16,21.4,24.1
				c7.1,8.1,10.7,18.1,10.7,30c0,64.3-7.7,131.7-23.2,202.3C285,626,261.4,689.1,231.7,734.7c30.5-3.2,54.9-17.5,73.2-42.8
				c23.8-32.9,42.4-87.1,55.9-162.5c11.1-59.9,16.9-118.2,17.3-174.9c22.6-13.1,62.9-27.8,120.8-44c50.8-13.9,93.2-23.4,127.3-28.6
				l7.7,2.4c0.1,11.2,0.1,22,0.2,32.6c34-10.5,65.8-24.1,95.1-38C728.7,264.5,718.6,251.8,698.8,240.8z"/>
			<path class="st0" d="M698.8,240.8c-18.2-10.3-36.5-15.5-54.7-15.5c-6.4,0-14.9,1.4-25.6,4.2c-27.4,8.3-47.8,14.7-61.3,19
				c-81.3,21.4-142.4,37.1-183.3,47c-10.3-4.4-23.4-7.5-39.3-9.5c-4-0.4-17.5-1.4-40.5-3l-0.6,6c7.1,7.9,14.3,16,21.4,24.1
				c7.1,8.1,10.7,18.1,10.7,30c0,64.3-7.7,131.7-23.2,202.3C285,626,261.4,689.1,231.7,734.7c30.5-3.2,54.9-17.5,73.2-42.8
				c23.8-32.9,42.4-87.1,55.9-162.5c11.1-59.9,16.9-118.2,17.3-174.9c22.6-13.1,62.9-27.8,120.8-44c50.8-13.9,93.2-23.4,127.3-28.6
				l7.7,2.4c0.1,11.2,0.1,22,0.2,32.6c34-10.5,65.8-24.1,95.1-38C728.7,264.5,718.6,251.8,698.8,240.8z"/>
			<path class="st0" d="M698.8,240.8c-18.2-10.3-36.5-15.5-54.7-15.5c-6.4,0-14.9,1.4-25.6,4.2c-27.4,8.3-47.8,14.7-61.3,19
				c-81.3,21.4-142.4,37.1-183.3,47c-10.3-4.4-23.4-7.5-39.3-9.5c-4-0.4-17.5-1.4-40.5-3l-0.6,6c7.1,7.9,14.3,16,21.4,24.1
				c7.1,8.1,10.7,18.1,10.7,30c0,64.3-7.7,131.7-23.2,202.3C285,626,261.4,689.1,231.7,734.7c30.5-3.2,54.9-17.5,73.2-42.8
				c23.8-32.9,42.4-87.1,55.9-162.5c11.1-59.9,16.9-118.2,17.3-174.9c22.6-13.1,62.9-27.8,120.8-44c50.8-13.9,93.2-23.4,127.3-28.6
				l7.7,2.4c0.1,11.2,0.1,22,0.2,32.6c34-10.5,65.8-24.1,95.1-38C728.7,264.5,718.6,251.8,698.8,240.8z"/>
		</g>
		<g>
			<path class="st0" d="M953.5,841.6c-10.3-41.3-16.1-72-17.3-92.2l-4.2-4.8c-7.9,43.2-18.1,75-30.3,95.2
				C870.8,794.5,709.3,695.5,694,433.6c-1.2-21.2-1.3-39.2-0.8-54.3c-19,2.7-39.2,5.5-58.8,8.1c0.6,80.5,2.5,140.1,13.2,177
				C718.9,810.9,849,891.3,891,930.2c16.3,15.1,34.9,24.2,55.9,27.4c14.3-5.2,21.4-14.1,21.4-26.8
				C968.4,910.2,963.4,880.4,953.5,841.6z"/>
			<path class="st0" d="M953.5,841.6c-10.3-41.3-16.1-72-17.3-92.2l-4.2-4.8c-7.9,43.2-18.1,75-30.3,95.2
				C870.8,794.5,709.3,695.5,694,433.6c-1.2-21.2-1.3-39.2-0.8-54.3c-19,2.7-39.2,5.5-58.8,8.1c0.6,80.5,2.5,140.1,13.2,177
				C718.9,810.9,849,891.3,891,930.2c16.3,15.1,34.9,24.2,55.9,27.4c14.3-5.2,21.4-14.1,21.4-26.8
				C968.4,910.2,963.4,880.4,953.5,841.6z"/>
			<path class="st0" d="M953.5,841.6c-10.3-41.3-16.1-72-17.3-92.2l-4.2-4.8c-7.9,43.2-18.1,75-30.3,95.2
				C870.8,794.5,709.3,695.5,694,433.6c-1.2-21.2-1.3-39.2-0.8-54.3c-19,2.7-39.2,5.5-58.8,8.1c0.6,80.5,2.5,140.1,13.2,177
				C718.9,810.9,849,891.3,891,930.2c16.3,15.1,34.9,24.2,55.9,27.4c14.3-5.2,21.4-14.1,21.4-26.8
				C968.4,910.2,963.4,880.4,953.5,841.6z"/>
		</g>
		<g>
			<path class="st1" d="M790,188.5l-72.5,0l-36.3,0.1l-36.3,0.2l-145,1l-72.5,0.6l-36.3,0.3l-36.3,0.4l-36.3,0.5l-36.3,0.6
				l-72.5,1.3l-5.4,0.1l0.1,5.2c0.4,24.3,0.9,48.7,1.2,73l0.5,36.5l0.3,36.5l0.3,36.5l0.1,36.5l0,36.5l-0.2,36.5l-0.3,36.5
				l-0.5,36.5l-0.6,36.5l-0.7,36.5l-1.5,73l-0.6,36.5c-0.2,12.2-0.4,24.3-0.6,36.5l-0.1,8l8.1,0.1l36.3,0.4l36.3,0.2l36.3,0
				l36.3-0.1l72.5-0.4l72.5-0.7l36.3-0.5l36.3-0.5l36.3-0.6l36.3-0.8c12.1-0.3,24.2-0.5,36.3-0.8l36.3-0.9l23.9-0.7
				c-1.2-1.8-2.5-3.6-3.7-5.4l-20.3-0.6l-36.3-0.9c-12.1-0.3-24.2-0.5-36.3-0.8l-36.3-0.8l-36.3-0.6l-36.3-0.5l-36.3-0.5l-72.5-0.7
				l-72.5-0.4l-36.3-0.1l-36.3,0l-36.3,0.2l-28.3,0.3c-0.1-9.5-0.3-18.9-0.4-28.4l-0.6-36.5l-1.5-73l-0.7-36.5l-0.6-36.5l-0.5-36.5
				l-0.3-36.5l-0.2-36.5l0-36.5l0.1-36.5l0.3-36.5l0.3-36.5l0.5-36.5c0.3-22.6,0.7-45.1,1.1-67.7l67.3,1.2l36.3,0.6l36.3,0.5
				l36.3,0.4l36.3,0.3l72.5,0.6l145,1l36.3,0.2l36.3,0.1l62.3,0l0.2,45.3c6.9-3.4,13.6-6.7,20.1-9.8l0.2-45.8l0-10.3L790,188.5z"/>
			<path class="st1" d="M780.9,363.5l0.6,54.4l1,73l0.6,36.5l0.7,36.5l0.7,36.5l0.8,36.5l0.8,36.5l0.6,24.2c2.2,3.3,4.5,6.6,6.7,9.8
				l0.9-34l0.8-36.5l0.8-36.5l0.7-36.5l0.7-36.5l0.6-36.5l1-73l0.6-59.7c-3.6,1.1-7.4,2.3-11.2,3.5
				C786.2,362.2,783.8,362.8,780.9,363.5z"/>
		</g>
	</g>
	<g>
		<g>
			
				<linearGradient id="SVGID_1_" gradientUnits="userSpaceOnUse" x1="230.8836" y1="827.1351" x2="861.2818" y2="196.7368" gradientTransform="matrix(1 0 0 1 3 -4)">
				<stop  offset="0" style="stop-color:#FF6AF2"/>
				<stop  offset="7.133605e-02" style="stop-color:#FD65CB"/>
				<stop  offset="0.1649" style="stop-color:#FA5E9E"/>
				<stop  offset="0.2625" style="stop-color:#F75977"/>
				<stop  offset="0.363" style="stop-color:#F55558"/>
				<stop  offset="0.4672" style="stop-color:#F45140"/>
				<stop  offset="0.5767" style="stop-color:#F34F2F"/>
				<stop  offset="0.6952" style="stop-color:#F24D24"/>
				<stop  offset="0.8385" style="stop-color:#F24D21"/>
			</linearGradient>
			<path class="st2" d="M899.1,229.2c-10.8-6.9-36.3,0.9-45.8,3.5c-71.4,19.7-197.9,119.4-352.9,112.6
				c-25.9-1.1-49.4,15.7-74.1,23.5c-18.8,5.1-31,7.5-36.5,7.1h-3.5l-0.6,6.5c13.7,14.1,26.3,24.7,37.6,31.8l35.3-10l15.9,10.6
				l-0.6,21.2c-34.1,10.6-56.1,15.9-65.9,15.9l-22.4-2.4l-3.5,5.3c5.9,6.3,9,18.8,9.4,37.6c0.8,25.1,2,41.2,3.5,48.2
				c4.3,18.4,13.9,31.6,28.8,39.4c11.8-4.3,17.8-11,18.2-20l29.4-6.5l-1.8,62.9c-38,15.7-61.2,23.5-69.4,23.5
				c-10.2,0-18.8-3.3-25.9-10l-5.3,2.9c-1.2,4.3-4.5,11.3-10,20.9c-5.5,9.6-8.2,15.8-8.2,18.5c0,6.7,4,16.2,12.1,28.5
				c8,12.4,15.2,19.1,21.5,20.3c21.6-14.5,37.6-25.7,48.2-33.5c27.4-12.5,48.4-21.6,62.9-27.1c12.5-5.5,25.2-11,37.9-16.5
				c12.7-5.5,25.8-8.6,39.1-9.4c5.9,16.1,11.6,32.2,17.1,48.2c9,17.6,22.2,27.6,39.4,30h1.8c8.2,0.4,14.9-4.7,20-15.3
				c3.9-8.6,5.9-17.6,5.9-27.1c0-26.7-10.8-52-32.3-75.9c-20.4-22.7-43.9-37.3-70.6-43.5l-4.7,1.2c5.5,11.8,9.4,23.9,11.8,36.5
				c-15.3,5.1-30,10.4-44.1,15.9l0.6-55.3c35.3-6.7,57.4-12.9,66.5-18.8c2.4-3.9,7.1-13.1,14.1-27.6c5.5-11.8,10.8-20.2,15.9-25.3
				c10.2-10.6,15.3-18.6,15.3-24.1c0-5.9-6.3-13.7-18.8-23.5c-12.6-9.8-21.8-14.7-27.6-14.7c-8.2,0-28.4,3.9-60.6,11.8l8.2-20
				c0-6.3-4.1-11.2-12.4-14.7c3.9-1.2,235.1-29.6,267.3-39.3c73.6-22.2,94.2-37.3,107.8-47.9c20.3-15.8,26.5-43.4,26.5-46.2
				C919.6,249.2,909.9,236,899.1,229.2z M461.4,503.8l-32.4,8.2c0.4-7.8-1-19.8-4.1-35.9c10.2-2.4,22.7-5.5,37.6-9.4L461.4,503.8z
				 M549.7,453.2L537.9,485c-8.6,5.5-17.8,8.4-27.6,8.8l1.2-33.5C522.8,457.1,535.5,454.8,549.7,453.2z"/>
			
				<linearGradient id="SVGID_2_" gradientUnits="userSpaceOnUse" x1="230.8836" y1="827.1351" x2="861.2818" y2="196.7368" gradientTransform="matrix(1 0 0 1 3 -4)">
				<stop  offset="0" style="stop-color:#FF6AF2"/>
				<stop  offset="7.133605e-02" style="stop-color:#FD65CB"/>
				<stop  offset="0.1649" style="stop-color:#FA5E9E"/>
				<stop  offset="0.2625" style="stop-color:#F75977"/>
				<stop  offset="0.363" style="stop-color:#F55558"/>
				<stop  offset="0.4672" style="stop-color:#F45140"/>
				<stop  offset="0.5767" style="stop-color:#F34F2F"/>
				<stop  offset="0.6952" style="stop-color:#F24D24"/>
				<stop  offset="0.8385" style="stop-color:#F24D21"/>
			</linearGradient>
			<path class="st3" d="M899.1,229.2c-10.8-6.9-36.3,0.9-45.8,3.5c-71.4,19.7-197.9,119.4-352.9,112.6
				c-25.9-1.1-49.4,15.7-74.1,23.5c-18.8,5.1-31,7.5-36.5,7.1h-3.5l-0.6,6.5c13.7,14.1,26.3,24.7,37.6,31.8l35.3-10l15.9,10.6
				l-0.6,21.2c-34.1,10.6-56.1,15.9-65.9,15.9l-22.4-2.4l-3.5,5.3c5.9,6.3,9,18.8,9.4,37.6c0.8,25.1,2,41.2,3.5,48.2
				c4.3,18.4,13.9,31.6,28.8,39.4c11.8-4.3,17.8-11,18.2-20l29.4-6.5l-1.8,62.9c-38,15.7-61.2,23.5-69.4,23.5
				c-10.2,0-18.8-3.3-25.9-10l-5.3,2.9c-1.2,4.3-4.5,11.3-10,20.9c-5.5,9.6-8.2,15.8-8.2,18.5c0,6.7,4,16.2,12.1,28.5
				c8,12.4,15.2,19.1,21.5,20.3c21.6-14.5,37.6-25.7,48.2-33.5c27.4-12.5,48.4-21.6,62.9-27.1c12.5-5.5,25.2-11,37.9-16.5
				c12.7-5.5,25.8-8.6,39.1-9.4c5.9,16.1,11.6,32.2,17.1,48.2c9,17.6,22.2,27.6,39.4,30h1.8c8.2,0.4,14.9-4.7,20-15.3
				c3.9-8.6,5.9-17.6,5.9-27.1c0-26.7-10.8-52-32.3-75.9c-20.4-22.7-43.9-37.3-70.6-43.5l-4.7,1.2c5.5,11.8,9.4,23.9,11.8,36.5
				c-15.3,5.1-30,10.4-44.1,15.9l0.6-55.3c35.3-6.7,57.4-12.9,66.5-18.8c2.4-3.9,7.1-13.1,14.1-27.6c5.5-11.8,10.8-20.2,15.9-25.3
				c10.2-10.6,15.3-18.6,15.3-24.1c0-5.9-6.3-13.7-18.8-23.5c-12.6-9.8-21.8-14.7-27.6-14.7c-8.2,0-28.4,3.9-60.6,11.8l8.2-20
				c0-6.3-4.1-11.2-12.4-14.7c3.9-1.2,235.1-29.6,267.3-39.3c73.6-22.2,94.2-37.3,107.8-47.9c20.3-15.8,26.5-43.4,26.5-46.2
				C919.6,249.2,909.9,236,899.1,229.2z M461.4,503.8l-32.4,8.2c0.4-7.8-1-19.8-4.1-35.9c10.2-2.4,22.7-5.5,37.6-9.4L461.4,503.8z
				 M549.7,453.2L537.9,485c-8.6,5.5-17.8,8.4-27.6,8.8l1.2-33.5C522.8,457.1,535.5,454.8,549.7,453.2z"/>
			
				<linearGradient id="SVGID_3_" gradientUnits="userSpaceOnUse" x1="230.8836" y1="827.1351" x2="861.2818" y2="196.7368" gradientTransform="matrix(1 0 0 1 3 -4)">
				<stop  offset="0" style="stop-color:#FF6AF2"/>
				<stop  offset="7.133605e-02" style="stop-color:#FD65CB"/>
				<stop  offset="0.1649" style="stop-color:#FA5E9E"/>
				<stop  offset="0.2625" style="stop-color:#F75977"/>
				<stop  offset="0.363" style="stop-color:#F55558"/>
				<stop  offset="0.4672" style="stop-color:#F45140"/>
				<stop  offset="0.5767" style="stop-color:#F34F2F"/>
				<stop  offset="0.6952" style="stop-color:#F24D24"/>
				<stop  offset="0.8385" style="stop-color:#F24D21"/>
			</linearGradient>
			<path class="st4" d="M899.1,229.2c-10.8-6.9-36.3,0.9-45.8,3.5c-71.4,19.7-197.9,119.4-352.9,112.6
				c-25.9-1.1-49.4,15.7-74.1,23.5c-18.8,5.1-31,7.5-36.5,7.1h-3.5l-0.6,6.5c13.7,14.1,26.3,24.7,37.6,31.8l35.3-10l15.9,10.6
				l-0.6,21.2c-34.1,10.6-56.1,15.9-65.9,15.9l-22.4-2.4l-3.5,5.3c5.9,6.3,9,18.8,9.4,37.6c0.8,25.1,2,41.2,3.5,48.2
				c4.3,18.4,13.9,31.6,28.8,39.4c11.8-4.3,17.8-11,18.2-20l29.4-6.5l-1.8,62.9c-38,15.7-61.2,23.5-69.4,23.5
				c-10.2,0-18.8-3.3-25.9-10l-5.3,2.9c-1.2,4.3-4.5,11.3-10,20.9c-5.5,9.6-8.2,15.8-8.2,18.5c0,6.7,4,16.2,12.1,28.5
				c8,12.4,15.2,19.1,21.5,20.3c21.6-14.5,37.6-25.7,48.2-33.5c27.4-12.5,48.4-21.6,62.9-27.1c12.5-5.5,25.2-11,37.9-16.5
				c12.7-5.5,25.8-8.6,39.1-9.4c5.9,16.1,11.6,32.2,17.1,48.2c9,17.6,22.2,27.6,39.4,30h1.8c8.2,0.4,14.9-4.7,20-15.3
				c3.9-8.6,5.9-17.6,5.9-27.1c0-26.7-10.8-52-32.3-75.9c-20.4-22.7-43.9-37.3-70.6-43.5l-4.7,1.2c5.5,11.8,9.4,23.9,11.8,36.5
				c-15.3,5.1-30,10.4-44.1,15.9l0.6-55.3c35.3-6.7,57.4-12.9,66.5-18.8c2.4-3.9,7.1-13.1,14.1-27.6c5.5-11.8,10.8-20.2,15.9-25.3
				c10.2-10.6,15.3-18.6,15.3-24.1c0-5.9-6.3-13.7-18.8-23.5c-12.6-9.8-21.8-14.7-27.6-14.7c-8.2,0-28.4,3.9-60.6,11.8l8.2-20
				c0-6.3-4.1-11.2-12.4-14.7c3.9-1.2,235.1-29.6,267.3-39.3c73.6-22.2,94.2-37.3,107.8-47.9c20.3-15.8,26.5-43.4,26.5-46.2
				C919.6,249.2,909.9,236,899.1,229.2z M461.4,503.8l-32.4,8.2c0.4-7.8-1-19.8-4.1-35.9c10.2-2.4,22.7-5.5,37.6-9.4L461.4,503.8z
				 M549.7,453.2L537.9,485c-8.6,5.5-17.8,8.4-27.6,8.8l1.2-33.5C522.8,457.1,535.5,454.8,549.7,453.2z"/>
			
				<linearGradient id="SVGID_4_" gradientUnits="userSpaceOnUse" x1="230.8836" y1="827.1351" x2="861.2818" y2="196.7368" gradientTransform="matrix(1 0 0 1 3 -4)">
				<stop  offset="0" style="stop-color:#FF6AF2"/>
				<stop  offset="7.133605e-02" style="stop-color:#FD65CB"/>
				<stop  offset="0.1649" style="stop-color:#FA5E9E"/>
				<stop  offset="0.2625" style="stop-color:#F75977"/>
				<stop  offset="0.363" style="stop-color:#F55558"/>
				<stop  offset="0.4672" style="stop-color:#F45140"/>
				<stop  offset="0.5767" style="stop-color:#F34F2F"/>
				<stop  offset="0.6952" style="stop-color:#F24D24"/>
				<stop  offset="0.8385" style="stop-color:#F24D21"/>
			</linearGradient>
			<path class="st5" d="M899.1,229.2c-10.8-6.9-36.3,0.9-45.8,3.5c-71.4,19.7-197.9,119.4-352.9,112.6
				c-25.9-1.1-49.4,15.7-74.1,23.5c-18.8,5.1-31,7.5-36.5,7.1h-3.5l-0.6,6.5c13.7,14.1,26.3,24.7,37.6,31.8l35.3-10l15.9,10.6
				l-0.6,21.2c-34.1,10.6-56.1,15.9-65.9,15.9l-22.4-2.4l-3.5,5.3c5.9,6.3,9,18.8,9.4,37.6c0.8,25.1,2,41.2,3.5,48.2
				c4.3,18.4,13.9,31.6,28.8,39.4c11.8-4.3,17.8-11,18.2-20l29.4-6.5l-1.8,62.9c-38,15.7-61.2,23.5-69.4,23.5
				c-10.2,0-18.8-3.3-25.9-10l-5.3,2.9c-1.2,4.3-4.5,11.3-10,20.9c-5.5,9.6-8.2,15.8-8.2,18.5c0,6.7,4,16.2,12.1,28.5
				c8,12.4,15.2,19.1,21.5,20.3c21.6-14.5,37.6-25.7,48.2-33.5c27.4-12.5,48.4-21.6,62.9-27.1c12.5-5.5,25.2-11,37.9-16.5
				c12.7-5.5,25.8-8.6,39.1-9.4c5.9,16.1,11.6,32.2,17.1,48.2c9,17.6,22.2,27.6,39.4,30h1.8c8.2,0.4,14.9-4.7,20-15.3
				c3.9-8.6,5.9-17.6,5.9-27.1c0-26.7-10.8-52-32.3-75.9c-20.4-22.7-43.9-37.3-70.6-43.5l-4.7,1.2c5.5,11.8,9.4,23.9,11.8,36.5
				c-15.3,5.1-30,10.4-44.1,15.9l0.6-55.3c35.3-6.7,57.4-12.9,66.5-18.8c2.4-3.9,7.1-13.1,14.1-27.6c5.5-11.8,10.8-20.2,15.9-25.3
				c10.2-10.6,15.3-18.6,15.3-24.1c0-5.9-6.3-13.7-18.8-23.5c-12.6-9.8-21.8-14.7-27.6-14.7c-8.2,0-28.4,3.9-60.6,11.8l8.2-20
				c0-6.3-4.1-11.2-12.4-14.7c3.9-1.2,235.1-29.6,267.3-39.3c73.6-22.2,94.2-37.3,107.8-47.9c20.3-15.8,26.5-43.4,26.5-46.2
				C919.6,249.2,909.9,236,899.1,229.2z M461.4,503.8l-32.4,8.2c0.4-7.8-1-19.8-4.1-35.9c10.2-2.4,22.7-5.5,37.6-9.4L461.4,503.8z
				 M549.7,453.2L537.9,485c-8.6,5.5-17.8,8.4-27.6,8.8l1.2-33.5C522.8,457.1,535.5,454.8,549.7,453.2z"/>
		</g>
		<g>
			
				<linearGradient id="SVGID_5_" gradientUnits="userSpaceOnUse" x1="98.6835" y1="694.9349" x2="729.0817" y2="64.5367" gradientTransform="matrix(1 0 0 1 3 -4)">
				<stop  offset="0" style="stop-color:#FF6AF2"/>
				<stop  offset="7.133605e-02" style="stop-color:#FD65CB"/>
				<stop  offset="0.1649" style="stop-color:#FA5E9E"/>
				<stop  offset="0.2625" style="stop-color:#F75977"/>
				<stop  offset="0.363" style="stop-color:#F55558"/>
				<stop  offset="0.4672" style="stop-color:#F45140"/>
				<stop  offset="0.5767" style="stop-color:#F34F2F"/>
				<stop  offset="0.6952" style="stop-color:#F24D24"/>
				<stop  offset="0.8385" style="stop-color:#F24D21"/>
			</linearGradient>
			<path class="st6" d="M698.8,240.8c-18.2-10.3-36.5-15.5-54.7-15.5c-6.4,0-14.9,1.4-25.6,4.2c-27.4,8.3-47.8,14.7-61.3,19
				c-81.3,21.4-142.4,37.1-183.3,47c-10.3-4.4-23.4-7.5-39.3-9.5c-4-0.4-17.5-1.4-40.5-3l-0.6,6c7.1,7.9,14.3,16,21.4,24.1
				c7.1,8.1,10.7,18.1,10.7,30c0,64.3-7.7,131.7-23.2,202.3C285,626,261.4,689.1,231.7,734.7c30.5-3.2,54.9-17.5,73.2-42.8
				c23.8-32.9,42.4-87.1,55.9-162.5c11.1-59.9,16.9-118.2,17.3-174.9c22.6-13.1,62.9-27.8,120.8-44c50.8-13.9,93.2-23.4,127.3-28.6
				l7.7,2.4c0.1,11.2,0.1,22,0.2,32.6c34-10.5,65.8-24.1,95.1-38C728.7,264.5,718.6,251.8,698.8,240.8z"/>
			
				<linearGradient id="SVGID_6_" gradientUnits="userSpaceOnUse" x1="98.6835" y1="694.9349" x2="729.0817" y2="64.5367" gradientTransform="matrix(1 0 0 1 3 -4)">
				<stop  offset="0" style="stop-color:#FF6AF2"/>
				<stop  offset="7.133605e-02" style="stop-color:#FD65CB"/>
				<stop  offset="0.1649" style="stop-color:#FA5E9E"/>
				<stop  offset="0.2625" style="stop-color:#F75977"/>
				<stop  offset="0.363" style="stop-color:#F55558"/>
				<stop  offset="0.4672" style="stop-color:#F45140"/>
				<stop  offset="0.5767" style="stop-color:#F34F2F"/>
				<stop  offset="0.6952" style="stop-color:#F24D24"/>
				<stop  offset="0.8385" style="stop-color:#F24D21"/>
			</linearGradient>
			<path class="st7" d="M698.8,240.8c-18.2-10.3-36.5-15.5-54.7-15.5c-6.4,0-14.9,1.4-25.6,4.2c-27.4,8.3-47.8,14.7-61.3,19
				c-81.3,21.4-142.4,37.1-183.3,47c-10.3-4.4-23.4-7.5-39.3-9.5c-4-0.4-17.5-1.4-40.5-3l-0.6,6c7.1,7.9,14.3,16,21.4,24.1
				c7.1,8.1,10.7,18.1,10.7,30c0,64.3-7.7,131.7-23.2,202.3C285,626,261.4,689.1,231.7,734.7c30.5-3.2,54.9-17.5,73.2-42.8
				c23.8-32.9,42.4-87.1,55.9-162.5c11.1-59.9,16.9-118.2,17.3-174.9c22.6-13.1,62.9-27.8,120.8-44c50.8-13.9,93.2-23.4,127.3-28.6
				l7.7,2.4c0.1,11.2,0.1,22,0.2,32.6c34-10.5,65.8-24.1,95.1-38C728.7,264.5,718.6,251.8,698.8,240.8z"/>
			
				<linearGradient id="SVGID_7_" gradientUnits="userSpaceOnUse" x1="98.6835" y1="694.9349" x2="729.0817" y2="64.5367" gradientTransform="matrix(1 0 0 1 3 -4)">
				<stop  offset="0" style="stop-color:#FF6AF2"/>
				<stop  offset="7.133605e-02" style="stop-color:#FD65CB"/>
				<stop  offset="0.1649" style="stop-color:#FA5E9E"/>
				<stop  offset="0.2625" style="stop-color:#F75977"/>
				<stop  offset="0.363" style="stop-color:#F55558"/>
				<stop  offset="0.4672" style="stop-color:#F45140"/>
				<stop  offset="0.5767" style="stop-color:#F34F2F"/>
				<stop  offset="0.6952" style="stop-color:#F24D24"/>
				<stop  offset="0.8385" style="stop-color:#F24D21"/>
			</linearGradient>
			<path class="st8" d="M698.8,240.8c-18.2-10.3-36.5-15.5-54.7-15.5c-6.4,0-14.9,1.4-25.6,4.2c-27.4,8.3-47.8,14.7-61.3,19
				c-81.3,21.4-142.4,37.1-183.3,47c-10.3-4.4-23.4-7.5-39.3-9.5c-4-0.4-17.5-1.4-40.5-3l-0.6,6c7.1,7.9,14.3,16,21.4,24.1
				c7.1,8.1,10.7,18.1,10.7,30c0,64.3-7.7,131.7-23.2,202.3C285,626,261.4,689.1,231.7,734.7c30.5-3.2,54.9-17.5,73.2-42.8
				c23.8-32.9,42.4-87.1,55.9-162.5c11.1-59.9,16.9-118.2,17.3-174.9c22.6-13.1,62.9-27.8,120.8-44c50.8-13.9,93.2-23.4,127.3-28.6
				l7.7,2.4c0.1,11.2,0.1,22,0.2,32.6c34-10.5,65.8-24.1,95.1-38C728.7,264.5,718.6,251.8,698.8,240.8z"/>
			
				<linearGradient id="SVGID_8_" gradientUnits="userSpaceOnUse" x1="98.6835" y1="694.9349" x2="729.0817" y2="64.5367" gradientTransform="matrix(1 0 0 1 3 -4)">
				<stop  offset="0" style="stop-color:#FF6AF2"/>
				<stop  offset="7.133605e-02" style="stop-color:#FD65CB"/>
				<stop  offset="0.1649" style="stop-color:#FA5E9E"/>
				<stop  offset="0.2625" style="stop-color:#F75977"/>
				<stop  offset="0.363" style="stop-color:#F55558"/>
				<stop  offset="0.4672" style="stop-color:#F45140"/>
				<stop  offset="0.5767" style="stop-color:#F34F2F"/>
				<stop  offset="0.6952" style="stop-color:#F24D24"/>
				<stop  offset="0.8385" style="stop-color:#F24D21"/>
			</linearGradient>
			<path class="st9" d="M698.8,240.8c-18.2-10.3-36.5-15.5-54.7-15.5c-6.4,0-14.9,1.4-25.6,4.2c-27.4,8.3-47.8,14.7-61.3,19
				c-81.3,21.4-142.4,37.1-183.3,47c-10.3-4.4-23.4-7.5-39.3-9.5c-4-0.4-17.5-1.4-40.5-3l-0.6,6c7.1,7.9,14.3,16,21.4,24.1
				c7.1,8.1,10.7,18.1,10.7,30c0,64.3-7.7,131.7-23.2,202.3C285,626,261.4,689.1,231.7,734.7c30.5-3.2,54.9-17.5,73.2-42.8
				c23.8-32.9,42.4-87.1,55.9-162.5c11.1-59.9,16.9-118.2,17.3-174.9c22.6-13.1,62.9-27.8,120.8-44c50.8-13.9,93.2-23.4,127.3-28.6
				l7.7,2.4c0.1,11.2,0.1,22,0.2,32.6c34-10.5,65.8-24.1,95.1-38C728.7,264.5,718.6,251.8,698.8,240.8z"/>
		</g>
		<g>
			
				<linearGradient id="SVGID_9_" gradientUnits="userSpaceOnUse" x1="435.4212" y1="1031.6726" x2="1065.8193" y2="401.2744" gradientTransform="matrix(1 0 0 1 3 -4)">
				<stop  offset="0" style="stop-color:#FF6AF2"/>
				<stop  offset="7.133605e-02" style="stop-color:#FD65CB"/>
				<stop  offset="0.1649" style="stop-color:#FA5E9E"/>
				<stop  offset="0.2625" style="stop-color:#F75977"/>
				<stop  offset="0.363" style="stop-color:#F55558"/>
				<stop  offset="0.4672" style="stop-color:#F45140"/>
				<stop  offset="0.5767" style="stop-color:#F34F2F"/>
				<stop  offset="0.6952" style="stop-color:#F24D24"/>
				<stop  offset="0.8385" style="stop-color:#F24D21"/>
			</linearGradient>
			<path class="st10" d="M953.5,841.6c-10.3-41.3-16.1-72-17.3-92.2l-4.2-4.8c-7.9,43.2-18.1,75-30.3,95.2
				C870.8,794.5,709.3,695.5,694,433.6c-1.2-21.2-1.3-39.2-0.8-54.3c-19,2.7-39.2,5.5-58.8,8.1c0.6,80.5,2.5,140.1,13.2,177
				C718.9,810.9,849,891.3,891,930.2c16.3,15.1,34.9,24.2,55.9,27.4c14.3-5.2,21.4-14.1,21.4-26.8
				C968.4,910.2,963.4,880.4,953.5,841.6z"/>
			
				<linearGradient id="SVGID_10_" gradientUnits="userSpaceOnUse" x1="435.4212" y1="1031.6726" x2="1065.8193" y2="401.2744" gradientTransform="matrix(1 0 0 1 3 -4)">
				<stop  offset="0" style="stop-color:#FF6AF2"/>
				<stop  offset="7.133605e-02" style="stop-color:#FD65CB"/>
				<stop  offset="0.1649" style="stop-color:#FA5E9E"/>
				<stop  offset="0.2625" style="stop-color:#F75977"/>
				<stop  offset="0.363" style="stop-color:#F55558"/>
				<stop  offset="0.4672" style="stop-color:#F45140"/>
				<stop  offset="0.5767" style="stop-color:#F34F2F"/>
				<stop  offset="0.6952" style="stop-color:#F24D24"/>
				<stop  offset="0.8385" style="stop-color:#F24D21"/>
			</linearGradient>
			<path class="st11" d="M953.5,841.6c-10.3-41.3-16.1-72-17.3-92.2l-4.2-4.8c-7.9,43.2-18.1,75-30.3,95.2
				C870.8,794.5,709.3,695.5,694,433.6c-1.2-21.2-1.3-39.2-0.8-54.3c-19,2.7-39.2,5.5-58.8,8.1c0.6,80.5,2.5,140.1,13.2,177
				C718.9,810.9,849,891.3,891,930.2c16.3,15.1,34.9,24.2,55.9,27.4c14.3-5.2,21.4-14.1,21.4-26.8
				C968.4,910.2,963.4,880.4,953.5,841.6z"/>
			
				<linearGradient id="SVGID_11_" gradientUnits="userSpaceOnUse" x1="435.4212" y1="1031.6726" x2="1065.8193" y2="401.2744" gradientTransform="matrix(1 0 0 1 3 -4)">
				<stop  offset="0" style="stop-color:#FF6AF2"/>
				<stop  offset="7.133605e-02" style="stop-color:#FD65CB"/>
				<stop  offset="0.1649" style="stop-color:#FA5E9E"/>
				<stop  offset="0.2625" style="stop-color:#F75977"/>
				<stop  offset="0.363" style="stop-color:#F55558"/>
				<stop  offset="0.4672" style="stop-color:#F45140"/>
				<stop  offset="0.5767" style="stop-color:#F34F2F"/>
				<stop  offset="0.6952" style="stop-color:#F24D24"/>
				<stop  offset="0.8385" style="stop-color:#F24D21"/>
			</linearGradient>
			<path class="st12" d="M953.5,841.6c-10.3-41.3-16.1-72-17.3-92.2l-4.2-4.8c-7.9,43.2-18.1,75-30.3,95.2
				C870.8,794.5,709.3,695.5,694,433.6c-1.2-21.2-1.3-39.2-0.8-54.3c-19,2.7-39.2,5.5-58.8,8.1c0.6,80.5,2.5,140.1,13.2,177
				C718.9,810.9,849,891.3,891,930.2c16.3,15.1,34.9,24.2,55.9,27.4c14.3-5.2,21.4-14.1,21.4-26.8
				C968.4,910.2,963.4,880.4,953.5,841.6z"/>
			
				<linearGradient id="SVGID_12_" gradientUnits="userSpaceOnUse" x1="435.4212" y1="1031.6726" x2="1065.8193" y2="401.2744" gradientTransform="matrix(1 0 0 1 3 -4)">
				<stop  offset="0" style="stop-color:#FF6AF2"/>
				<stop  offset="7.133605e-02" style="stop-color:#FD65CB"/>
				<stop  offset="0.1649" style="stop-color:#FA5E9E"/>
				<stop  offset="0.2625" style="stop-color:#F75977"/>
				<stop  offset="0.363" style="stop-color:#F55558"/>
				<stop  offset="0.4672" style="stop-color:#F45140"/>
				<stop  offset="0.5767" style="stop-color:#F34F2F"/>
				<stop  offset="0.6952" style="stop-color:#F24D24"/>
				<stop  offset="0.8385" style="stop-color:#F24D21"/>
			</linearGradient>
			<path class="st13" d="M953.5,841.6c-10.3-41.3-16.1-72-17.3-92.2l-4.2-4.8c-7.9,43.2-18.1,75-30.3,95.2
				C870.8,794.5,709.3,695.5,694,433.6c-1.2-21.2-1.3-39.2-0.8-54.3c-19,2.7-39.2,5.5-58.8,8.1c0.6,80.5,2.5,140.1,13.2,177
				C718.9,810.9,849,891.3,891,930.2c16.3,15.1,34.9,24.2,55.9,27.4c14.3-5.2,21.4-14.1,21.4-26.8
				C968.4,910.2,963.4,880.4,953.5,841.6z"/>
		</g>
		<g>
			
				<linearGradient id="SVGID_13_" gradientUnits="userSpaceOnUse" x1="183.681" y1="779.9324" x2="814.0792" y2="149.5342" gradientTransform="matrix(1 0 0 1 3 -4)">
				<stop  offset="0" style="stop-color:#FF6AF2"/>
				<stop  offset="7.133605e-02" style="stop-color:#FD65CB"/>
				<stop  offset="0.1649" style="stop-color:#FA5E9E"/>
				<stop  offset="0.2625" style="stop-color:#F75977"/>
				<stop  offset="0.363" style="stop-color:#F55558"/>
				<stop  offset="0.4672" style="stop-color:#F45140"/>
				<stop  offset="0.5767" style="stop-color:#F34F2F"/>
				<stop  offset="0.6952" style="stop-color:#F24D24"/>
				<stop  offset="0.8385" style="stop-color:#F24D21"/>
			</linearGradient>
			<path class="st14" d="M790,188.5l-72.5,0l-36.3,0.1l-36.3,0.2l-145,1l-72.5,0.6l-36.3,0.3l-36.3,0.4l-36.3,0.5l-36.3,0.6
				l-72.5,1.3l-5.4,0.1l0.1,5.2c0.4,24.3,0.9,48.7,1.2,73l0.5,36.5l0.3,36.5l0.3,36.5l0.1,36.5l0,36.5l-0.2,36.5l-0.3,36.5
				l-0.5,36.5l-0.6,36.5l-0.7,36.5l-1.5,73l-0.6,36.5c-0.2,12.2-0.4,24.3-0.6,36.5l-0.1,8l8.1,0.1l36.3,0.4l36.3,0.2l36.3,0
				l36.3-0.1l72.5-0.4l72.5-0.7l36.3-0.5l36.3-0.5l36.3-0.6l36.3-0.8c12.1-0.3,24.2-0.5,36.3-0.8l36.3-0.9l23.9-0.7
				c-1.2-1.8-2.5-3.6-3.7-5.4l-20.3-0.6l-36.3-0.9c-12.1-0.3-24.2-0.5-36.3-0.8l-36.3-0.8l-36.3-0.6l-36.3-0.5l-36.3-0.5l-72.5-0.7
				l-72.5-0.4l-36.3-0.1l-36.3,0l-36.3,0.2l-28.3,0.3c-0.1-9.5-0.3-18.9-0.4-28.4l-0.6-36.5l-1.5-73l-0.7-36.5l-0.6-36.5l-0.5-36.5
				l-0.3-36.5l-0.2-36.5l0-36.5l0.1-36.5l0.3-36.5l0.3-36.5l0.5-36.5c0.3-22.6,0.7-45.1,1.1-67.7l67.3,1.2l36.3,0.6l36.3,0.5
				l36.3,0.4l36.3,0.3l72.5,0.6l145,1l36.3,0.2l36.3,0.1l62.3,0l0.2,45.3c6.9-3.4,13.6-6.7,20.1-9.8l0.2-45.8l0-10.3L790,188.5z"/>
			
				<linearGradient id="SVGID_14_" gradientUnits="userSpaceOnUse" x1="363.6283" y1="959.8798" x2="994.0265" y2="329.4815" gradientTransform="matrix(1 0 0 1 3 -4)">
				<stop  offset="0" style="stop-color:#FF6AF2"/>
				<stop  offset="7.133605e-02" style="stop-color:#FD65CB"/>
				<stop  offset="0.1649" style="stop-color:#FA5E9E"/>
				<stop  offset="0.2625" style="stop-color:#F75977"/>
				<stop  offset="0.363" style="stop-color:#F55558"/>
				<stop  offset="0.4672" style="stop-color:#F45140"/>
				<stop  offset="0.5767" style="stop-color:#F34F2F"/>
				<stop  offset="0.6952" style="stop-color:#F24D24"/>
				<stop  offset="0.8385" style="stop-color:#F24D21"/>
			</linearGradient>
			<path class="st15" d="M780.9,363.5l0.6,54.4l1,73l0.6,36.5l0.7,36.5l0.7,36.5l0.8,36.5l0.8,36.5l0.6,24.2
				c2.2,3.3,4.5,6.6,6.7,9.8l0.9-34l0.8-36.5l0.8-36.5l0.7-36.5l0.7-36.5l0.6-36.5l1-73l0.6-59.7c-3.6,1.1-7.4,2.3-11.2,3.5
				C786.2,362.2,783.8,362.8,780.9,363.5z"/>
		</g>
	</g>
</g>
</svg>
